<svg width="320" height="91" viewBox="0 0 320 91" fill="none" xmlns="http://www.w3.org/2000/svg">
<path fill-rule="evenodd" clip-rule="evenodd" d="M5 31V61H21.8V11H38.6V21H55.4V31H72.4667V11H89.2667V71H106.067V61H122.867V41H139.667V81H156.467V31H173.533V21H190.333V71H207.133V21H223.933V51H240.733V41H257.533V1H274.6V51H291.4V91H308.2V31H325V91H308.2H291.4H274.6H257.533H240.733H223.933H207.133H190.333H173.533H156.467H139.667H122.867H106.067H89.2667H72.4667H55.4H38.6H21.8H5V31Z" fill="#848484"/>
<path fill-rule="evenodd" clip-rule="evenodd" d="M0 30.3333V60.6667H16.8V10.1111H33.6V20.2222H50.4V30.3333H67.4667V10.1111H84.2667V70.7778H101.067V60.6667H117.867V40.4444H134.667V80.8889H151.467V30.3333H168.533V20.2222H185.333V70.7778H202.133V20.2222H218.933V50.5556H235.733V40.4444H252.533V0H269.6V50.5556H286.4V91H303.2V30.3333H320V91H303.2H286.4H269.6H252.533H235.733H218.933H202.133H185.333H168.533H151.467H134.667H117.867H101.067H84.2667H67.4667H50.4H33.6H16.8H0V30.3333Z" fill="#F2F3D9"/>
</svg>
